<svg version="1.1" id="acafe" xmlns="http://www.w3.org/2000/svg" xmlns:xlink="http://www.w3.org/1999/xlink" x="0px" y="0px" viewBox="0 0 89.7 24.5" enable-background="new 0 0 89.7 24.5" xml:space="preserve"> <g> <defs> <rect id="SVGID_1_" x="0.6" y="0.6" width="89.1" height="23.5"></rect> </defs> <clipPath id="SVGID_2_"> <use xlink:href="#SVGID_1_" overflow="visible"></use> </clipPath> <path clip-path="url(#SVGID_2_)" fill="#636363" d="M28.5,5.9l0.8-0.1c0.1,0.3,0.2,0.7,0.3,0.8s0.4,0.4,0.7,0.5 c0.3,0.2,0.7,0.2,1,0.2s0.7-0.1,0.9-0.2c0.3-0.1,0.4-0.3,0.6-0.4c0.2-0.2,0.2-0.4,0.2-0.6c0-0.2-0.1-0.4-0.2-0.5 c-0.2-0.2-0.3-0.3-0.7-0.4c-0.2-0.1-0.6-0.2-1.2-0.3c-0.7-0.2-1.1-0.3-1.3-0.4c-0.3-0.2-0.6-0.4-0.7-0.7c-0.2-0.3-0.3-0.5-0.3-0.8 c0-0.3,0.1-0.7,0.3-1c0.2-0.3,0.5-0.5,0.9-0.7C30.3,1.1,30.7,1,31.2,1s1,0.1,1.3,0.3c0.4,0.2,0.7,0.4,0.9,0.7 c0.2,0.2,0.3,0.7,0.3,1.1l-0.9,0.1c-0.1-0.4-0.2-0.7-0.4-1c-0.2-0.3-0.7-0.3-1.2-0.3c-0.6,0-1,0.1-1.2,0.3 c-0.2,0.2-0.4,0.4-0.4,0.7c0,0.2,0.1,0.4,0.2,0.7c0.2,0.2,0.7,0.3,1.4,0.5c0.7,0.2,1.3,0.3,1.5,0.4c0.4,0.2,0.7,0.4,0.9,0.7 c0.2,0.3,0.3,0.7,0.3,1c0,0.4-0.1,0.7-0.3,1c-0.2,0.2-0.4,0.5-0.8,0.7c-0.4,0.2-0.8,0.2-1.3,0.2c-0.7,0-1.1-0.1-1.6-0.2 c-0.4-0.2-0.7-0.4-1-0.8C28.7,6.8,28.5,6.4,28.5,5.9"></path> </g> <rect x="38.5" y="1.3" fill="#636363" width="0.9" height="6.9"></rect> <g> <defs> <rect id="SVGID_3_" x="0.6" y="0.6" width="89.1" height="23.5"></rect> </defs> <clipPath id="SVGID_4_"> <use xlink:href="#SVGID_3_" overflow="visible"></use> </clipPath> <path clip-path="url(#SVGID_4_)" fill="#636363" d="M43.9,5.9l0.8-0.1c0.1,0.3,0.2,0.7,0.3,0.8c0.2,0.2,0.4,0.4,0.7,0.5 c0.3,0.2,0.7,0.2,1,0.2c0.3,0,0.7-0.1,0.9-0.2C48,7.2,48.2,7,48.3,6.8c0.2-0.2,0.2-0.4,0.2-0.6c0-0.2-0.1-0.4-0.2-0.5 c-0.2-0.2-0.3-0.3-0.7-0.4c-0.2-0.1-0.6-0.2-1.2-0.3c-0.7-0.2-1.1-0.3-1.3-0.4c-0.3-0.2-0.6-0.4-0.7-0.7c-0.2-0.3-0.3-0.5-0.3-0.8 c0-0.3,0.1-0.7,0.3-1c0.2-0.3,0.5-0.5,0.9-0.7C45.8,1.1,46.2,1,46.7,1s1,0.1,1.3,0.3c0.4,0.2,0.7,0.4,0.9,0.7 c0.2,0.2,0.3,0.7,0.3,1.1l-0.9,0.1c-0.1-0.4-0.2-0.7-0.4-1c-0.2-0.2-0.7-0.3-1.2-0.3c-0.5,0-1,0.1-1.2,0.3C45.2,2.3,45,2.6,45,2.8 c0,0.2,0.1,0.4,0.3,0.7c0.2,0.2,0.7,0.3,1.4,0.5c0.7,0.2,1.3,0.3,1.5,0.4c0.4,0.2,0.7,0.4,0.9,0.7c0.2,0.3,0.3,0.7,0.3,1 c0,0.4-0.1,0.7-0.3,1c-0.2,0.3-0.5,0.6-0.9,0.7c-0.4,0.2-0.8,0.3-1.3,0.3c-0.7,0-1.1-0.1-1.6-0.3c-0.4-0.2-0.7-0.4-1-0.8 C44,6.8,43.9,6.4,43.9,5.9"></path> </g> <polygon fill="#636363" points="55.5,8.2 55.5,2.1 53.3,2.1 53.3,1.3 58.7,1.3 58.7,2.1 56.5,2.1 56.5,8.2 55.5,8.2 "></polygon> <polygon fill="#636363" points="62.8,8.2 62.8,1.3 67.8,1.3 67.8,2.1 63.7,2.1 63.7,4.2 67.5,4.2 67.5,5 63.7,5 63.7,7.4 67.9,7.4 67.9,8.2 "></polygon> <g> <defs> <rect id="SVGID_5_" x="0.6" y="0.6" width="89.1" height="23.5"></rect> </defs> <clipPath id="SVGID_6_"> <use xlink:href="#SVGID_5_" overflow="visible"></use> </clipPath> <path clip-path="url(#SVGID_6_)" fill="#636363" d="M72.3,8.2V1.3h1.4l1.6,4.9c0.2,0.4,0.3,0.8,0.3,1c0.1-0.2,0.2-0.7,0.4-1.1 l1.6-4.8H79v6.9h-0.9V2.4l-2,5.8h-0.8l-2-5.9v5.9H72.3z"></path> <path clip-path="url(#SVGID_6_)" fill="#636363" d="M84.8,5.4h2.4l-0.7-1.9c-0.2-0.6-0.4-1-0.5-1.4c-0.1,0.4-0.2,0.9-0.4,1.3 L84.8,5.4z M82.8,8.2l2.7-6.9h1l2.8,6.9h-1l-0.8-2.1h-2.9l-0.7,2.1H82.8z"></path> </g> <path fill="#636363" d="M32.1,14.3l1.4,4.6h-2.7L32.1,14.3z M30,11l-4.7,12.8h3.9l0.7-2.1h4.5l0.5,2.1h4.1L34.2,11H30z"></path> <g> <defs> <rect id="SVGID_7_" x="0.6" y="0.6" width="89.1" height="23.5"></rect> </defs> <clipPath id="SVGID_8_"> <use xlink:href="#SVGID_7_" overflow="visible"></use> </clipPath> <path clip-path="url(#SVGID_8_)" fill="#636363" d="M48.3,18.5l3.4,1c-0.2,1-0.6,1.8-1.1,2.4c-0.5,0.7-1.1,1.1-1.9,1.5 c-0.7,0.3-1.6,0.5-2.8,0.5c-1.4,0-2.5-0.2-3.4-0.6c-0.9-0.4-1.6-1.1-2.2-2.1c-0.7-1-0.9-2.3-0.9-3.9c0-2.1,0.5-3.7,1.6-4.9 c1.1-1.2,2.7-1.7,4.7-1.7c1.6,0,2.8,0.3,3.7,1c0.9,0.7,1.6,1.6,2,3l-3.5,0.7c-0.2-0.4-0.3-0.7-0.4-0.8c-0.2-0.3-0.4-0.5-0.8-0.7 c-0.3-0.2-0.7-0.3-1-0.3c-0.9,0-1.6,0.4-2,1.1c-0.3,0.5-0.5,1.4-0.5,2.5c0,1.4,0.2,2.4,0.7,2.9c0.4,0.5,1,0.8,1.8,0.8 c0.7,0,1.3-0.2,1.7-0.7C47.9,19.9,48.2,19.3,48.3,18.5"></path> </g> <path fill="#636363" d="M59.2,14.3l1.4,4.6h-2.7L59.2,14.3z M57,11l-4.7,12.8h4l0.7-2.1h4.5l0.5,2.1H66L61.3,11H57z"></path> <polygon fill="#636363" points="67.4,10.9 67.3,23.7 71.2,23.7 71.2,18.4 76.1,18.4 76.1,15.9 71.2,15.9 71.2,13.6 76.9,13.6 76.9,10.9 "></polygon> <polygon fill="#636363" points="79,10.9 79,23.7 89.7,23.7 89.7,20.8 82.9,20.8 82.9,18.3 89,18.3 89,15.7 82.9,15.7 82.9,13.6 89.5,13.6 89.5,10.9 "></polygon> <g> <defs> <rect id="SVGID_9_" x="0.6" y="0.6" width="89.1" height="23.5"></rect> </defs> <clipPath id="SVGID_10_"> <use xlink:href="#SVGID_9_" overflow="visible"></use> </clipPath> <path clip-path="url(#SVGID_10_)" fill="#636363" d="M18.3,17.1c-0.6,0-1.1-0.1-1.6-0.3c0.2,0.5,0.3,1,0.3,1.6 c0,2.6-2.1,4.7-4.7,4.7c-2.6,0-4.7-2.1-4.7-4.7c0-0.6,0.1-1.1,0.3-1.6c-0.5,0.2-1,0.3-1.6,0.3c-2.6,0-4.7-2.1-4.7-4.7 s2.1-4.7,4.7-4.7c0.6,0,1.1,0.1,1.6,0.3C7.8,7.5,7.6,7,7.6,6.4c0-2.6,2.1-4.7,4.7-4.7c2.6,0,4.7,2.1,4.7,4.7C17,7,16.9,7.5,16.7,8 c0.5-0.2,1-0.3,1.6-0.3c2.6,0,4.7,2.1,4.7,4.7S21,17.1,18.3,17.1 M18.2,6.4c-0.2-3.3-2.7-5.8-5.9-5.8c-3.2,0-5.8,2.6-5.8,5.8 c-3.3,0.1-5.9,2.7-5.9,5.9c0,3.2,2.6,5.8,5.9,5.9c0.2,3.3,2.7,5.8,5.8,5.8c3.1,0,5.7-2.6,5.8-5.8c3.3-0.2,5.8-2.7,5.8-5.9 C24,9.2,21.5,6.6,18.2,6.4"></path> <path clip-path="url(#SVGID_10_)" fill="#636363" d="M20,15.1c-0.2,0.2-0.8,0.3-1.4,0.4c-0.6,0.1-1.2-0.2-1.4-0.3 c-0.4-0.2-0.7-0.4-0.7-0.4l1.6-1.6h-5.2v5l1.6-1.5c0,0,0.2,0.2,0.4,0.7c0.1,0.2,0.2,0.8,0.2,1.4c-0.1,0.6-0.2,1.3-0.4,1.5 c-0.4,0.7-1.4,1.4-2.4,1.4h-0.1c-1,0-1.9-0.7-2.4-1.4c-0.2-0.2-0.3-0.8-0.4-1.4c-0.1-0.6,0.2-1.2,0.3-1.4c0.2-0.4,0.5-0.7,0.5-0.7 l1.7,1.6v-5.1H6.8l1.5,1.6c0,0-0.3,0.3-0.7,0.5c-0.2,0.1-0.8,0.3-1.4,0.2c-0.6-0.1-1.1-0.2-1.3-0.4c-0.7-0.4-1.2-1.4-1.2-2.4v-0.1 c0-1,0.4-1.9,1.2-2.4c0.2-0.2,0.7-0.3,1.3-0.4c0.6-0.1,1.2,0.2,1.4,0.2c0.4,0.2,0.7,0.7,0.7,0.7l-1.6,1.9H12V6.8l-1.6,1.5 c0,0-0.3-0.2-0.5-0.7C9.8,7.4,9.6,6.8,9.6,6.2c0.1-0.6,0.2-1,0.4-1.3c0.4-0.7,1.4-1.1,2.4-1.1h0.1c1,0,1.9,0.4,2.4,1.1 c0.2,0.2,0.3,0.7,0.4,1.3c0.1,0.6-0.2,1.2-0.3,1.4c-0.2,0.4-0.4,0.7-0.4,0.7l-1.7-1.6v5.5v0.4h5.1l-1.5-1.9c0,0,0.3-0.4,0.7-0.6 c0.2-0.1,0.8-0.3,1.4-0.3c0.6,0.1,1.2,0.2,1.4,0.3c0.7,0.4,1.3,1.3,1.3,2.3v0.1C21.3,13.6,20.7,14.6,20,15.1 M18.4,8.8 c-1.8,0-3.3,1.3-3.7,3h-1.4v-1.8c2.1-0.5,2.8-1.9,2.8-3.6c0-2.1-1.7-3.9-3.8-3.9c-2.1,0-4,1.7-4,3.9c0,1.7,1.2,3.1,2.5,3.6v1.8H10 c-0.4-1.7-1.9-3-3.7-3c-2.1,0-3.9,1.6-3.9,3.7c0,2.1,1.7,4.1,3.9,4.1c1.6,0,3.1-1,3.6-2.3h0.9v0.4c-1.3,0.5-2.4,1.9-2.4,3.6 c0,2.1,1.8,3.9,3.9,3.9c2.1,0,3.8-1.7,3.8-3.9c0-1.7-0.7-3.1-2.7-3.6v-0.4h1.5c0.5,1.3,1.9,2.2,3.6,2.2c2.1,0,3.9-1.8,3.9-3.9 C22.2,10.6,20.5,8.8,18.4,8.8"></path> </g> </svg>