<svg version="1.1" id="capes" xmlns="http://www.w3.org/2000/svg" xmlns:xlink="http://www.w3.org/1999/xlink" x="0px" y="0px" viewBox="0 0 52.8 46.4" enable-background="new 0 0 52.8 46.4" xml:space="preserve"> <path fill="#636363" d="M51.9,21.2c-0.1,1.2-0.5,2.4-1.2,3.4c-1,1.5-2.4,2.5-3.9,3.4c0.5-0.7,0.9-1.5,1.3-2.5c0-1.4-0.1-2.6-0.5-3.8 c-1-3.5-4.1-5.7-7.1-7.3c-2.1-1.1-4.3-1.8-6.5-2.5S29.2,11,27,10.5c2.1-0.5,4.1-0.8,6.2-1c3.6-0.4,7.6,0.1,11.1,1.3 c2.6,1.1,5.6,2.8,7,5.6C51.9,17.8,52.1,19.5,51.9,21.2 M45.4,28.8c-1.3,0.5-2.5,0.9-3.8,1c-2.4,0.5-5,0.7-7.5,0.7 c-3,0.1-6.1-0.2-9.1-0.4c-2.9-0.3-5.8-0.7-8.7-1.3c-2.4-0.4-4.8-0.9-7.1-1.8c-0.4-0.1-0.7-0.4-1.1-0.5c-0.4-2.1,0.3-4.3,1.2-6.1 c1.4-2.8,3.5-5.3,5.7-7.4c1-0.8,1.9-2.4,2.9-2.4H18c2.5,0,5.1,0.1,7.5,0.3c2.8,0.5,5.6,1,8.4,1.7c2.2,0.5,4.3,1.2,6.4,2.3 c2.8,1.6,5.7,3.6,6.8,6.9c0.4,1.1,0.5,2.3,0.5,3.4C47.1,26.7,46.4,27.9,45.4,28.8 M41.4,31.3c-2,1-4.3,1.6-6.5,2.2 c-3,0.7-6.3,1-9.4,1.4c-3.9,0-8.8-0.4-12.5-2c-2.1-1.1-4.2-2.7-4.8-5.2c0.3,0,0.5,0.1,0.7,0.2c2.5,0.7,4.9,1.4,7.3,1.8 c2.8,0.5,5.8,0.9,8.7,1.3c3,0.3,6.2,0.5,9.2,0.4c2.5-0.1,5.1-0.2,7.5-0.7c0.6-0.1,1.5-0.4,2.2-0.5C43,30.6,42.1,31,41.4,31.3 M1.6,21.4c-0.3-1-0.3-2.2-0.1-3.3c0.3-0.7,0.7-1.6,1.3-2.3c2-2.7,5.6-3.9,8.7-4.5c1.7-0.4,3.4-0.5,5.3-0.5 c-0.8,0.6-1.5,1.3-2.2,1.9c-2.3,2.1-4.4,4.7-5.8,7.6c-0.8,2-1.5,4.1-1.3,6.2C5.1,25.5,2.5,23.8,1.6,21.4 M51.7,16.1 c-1.5-3-4.5-4.8-7.4-5.9C40.8,8.9,36.8,8.6,33,8.8C30.9,9,28.7,9.4,26.5,10l-0.2-0.3c-0.4,0-0.6,0-0.8,0h-0.1c-2.3,0-4.5,0-6.8,0 C23.5,6.1,29.3,3.4,35,2.2c2.1-0.4,4.1-0.8,6.2-0.8h0.2c0.1,0,0.4,0.5,0.5,0.5c0.3,0,0.6-0.2,0.6-0.6c0-0.3-0.3-1-0.6-1 c-0.2,0-0.4,0-0.5,0h-0.2c-2.1,0-4.2,0.8-6.3,1.3C29,3,22.7,6.1,17.6,10.1c-2.1,0-4.2,0.3-6.3,0.6c-3.4,0.6-7,1.9-9.2,4.8 c-0.6,0.7-1,1.6-1.4,2.5c-0.4,1.2-0.4,2.5,0.1,3.6c0.9,2.8,3.8,4.6,6.6,5.7c0,0.2,0.1,0.4,0.1,0.5c0.6,2.8,2.8,4.5,5.2,5.6 c3.8,1.7,8.5,2.2,12.6,2.2c3.2-0.3,6.5-0.7,9.5-1.4c2.3-0.5,4.6-1.2,6.7-2.2c1.4-0.7,2.8-1.6,4-2.6c2.3-0.9,4.3-2.3,5.5-4.4 c0.6-1.2,1.1-2.5,1.3-3.8C52.7,19.5,52.4,17.7,51.7,16.1"></path> <path fill="#636363" d="M27.2,19.4c-1.7,0-3,1.3-3,3c0,1.6,1.3,3,3,3c1.7,0,3-1.3,3-3C30.2,20.8,28.8,19.4,27.2,19.4"></path> <path fill="#636363" d="M10.7,46.1c-0.3,0.2-1,0.3-1.8,0.3c-1.9,0-3.3-1.2-3.3-3.4c0-2.1,1.4-3.6,3.5-3.6c0.8,0,1.4,0.2,1.6,0.3 l-0.2,0.7c-0.3-0.2-0.8-0.3-1.4-0.3c-1.6,0-2.6,1-2.6,2.8c0,1.7,1,2.7,2.6,2.7c0.5,0,1.1-0.1,1.4-0.3L10.7,46.1z"></path> <path fill="#636363" d="M18.8,43.5l-0.7-1.9c-0.1-0.4-0.3-0.8-0.4-1.2h0c-0.1,0.4-0.2,0.8-0.3,1.2l-0.7,2H18.8z M16.5,44.2l-0.7,2.1 h-0.9l2.3-6.8h1l2.3,6.8h-0.9l-0.7-2.1H16.5z"></path> <path fill="#636363" d="M26.1,42.9c0.2,0,0.4,0.1,0.7,0.1c1.1,0,1.7-0.5,1.7-1.4c0-0.9-0.6-1.3-1.6-1.3c-0.4,0-0.7,0-0.8,0.1V42.9z M25.2,39.6c0.4-0.1,1-0.1,1.7-0.1c0.9,0,1.5,0.2,1.9,0.6c0.4,0.3,0.6,0.8,0.6,1.4c0,0.6-0.2,1.1-0.5,1.4c-0.5,0.5-1.2,0.7-2.1,0.7 c-0.3,0-0.5,0-0.7-0.1v2.7h-0.9V39.6z"></path> <polygon fill="#636363" points="34.9,39.5 34.9,46.3 38.8,46.3 38.8,45.6 35.8,45.6 35.8,43.1 38.5,43.1 38.5,42.4 35.8,42.4 35.8,40.2 38.6,40.2 38.6,39.5 "></polygon> <path fill="#636363" d="M43.8,45.2c0.4,0.3,1,0.4,1.6,0.4c0.9,0,1.4-0.5,1.4-1.2c0-0.6-0.4-1-1.3-1.3c-1.1-0.4-1.8-1-1.8-1.9 c0-1.1,0.9-1.8,2.2-1.8c0.7,0,1.2,0.2,1.5,0.3l-0.2,0.7c-0.2-0.1-0.7-0.3-1.3-0.3c-0.9,0-1.3,0.6-1.3,1c0,0.6,0.4,0.9,1.3,1.3 c1.1,0.4,1.7,1,1.7,2c0,1-0.8,2-2.4,2c-0.7,0-1.4-0.2-1.7-0.4L43.8,45.2z"></path> </svg>