<svg version="1.1" id="cnpq" xmlns="http://www.w3.org/2000/svg" xmlns:xlink="http://www.w3.org/1999/xlink" x="0px" y="0px" viewBox="0 0 85 29" enable-background="new 0 0 85 29" xml:space="preserve"> <path fill="#636363" d="M21.2,8.7c0.5,1.6,0.3,2.5,0.1,3.8c-0.3,1.4-1.2,2.5-2,3.2l2.8,9.2h-2.8c-0.9-3.4-2.1-7.1-3.1-10.5 c0.6-0.2,2.2-1.2,2.5-3.2c0.2-1.9-1-3.4-1.9-3.9c-0.7-0.5-1.9-0.8-2.9-0.6c-2,0.3-3.4,1.8-3.8,3.4c0,0.2,0,0.3-0.1,0.6 c0,0-0.8,2.1-1.1,2.7h0.6v5.4h6.8l0.8,2.6H6.9v-6H5.5c0.5-1.4,1.9-4.7,1.9-4.7C7.4,9.6,7.6,7.4,10,5.5c1.2-1,3.1-1.5,4.9-1.4 C18.3,4.5,20.4,6.6,21.2,8.7"></path> <path fill="#636363" d="M24,6.4c2,4.3,0.7,8.4-0.8,10.2l2.4,8.2h-2.7L20.1,16c1.6-1.5,2.7-4.6,1.9-7.2c-0.7-2.6-2.9-4.7-6.2-5.3 c-3.4-0.7-6.7,1.1-8.1,3.3c-0.8,1.3-1.1,2.5-1.2,4c0,0-1.8,4-2.4,5.4H6v6.1h11.3l0.8,2.7H3.2v-6.3H0.1c0,0,3.4-7.5,3.4-7.7 c0.2-2.6,1.4-5.9,4.1-7.9c1.3-1.1,3.2-2,5.5-2.2C15.8,0.5,17,1,18.6,1.6C21.5,2.8,23.6,5.3,24,6.4"></path> <path fill="#636363" d="M11.6,10.8c0-1.4,1.3-2.6,2.8-2.6s2.8,1.2,2.8,2.6s-1.3,2.6-2.8,2.6S11.6,12.3,11.6,10.8"></path> <path fill="#636363" d="M27,19.8c0-0.5,0-1.1,0.1-1.6c0.1-0.6,0.2-1.2,0.5-1.8c0.5-1.4,1.3-2.6,2.6-3.8s3.2-1.8,5.8-1.8h1 c0.3,0,0.7,0,1.1,0.1c0.9,0.1,1.9,0.5,2.7,1c0.8,0.5,1.3,1.3,1.3,2.4v0.5c0,0.1,0,0.3-0.1,0.6h-4.3v-0.2V15c0-0.5-0.1-0.8-0.3-0.9 c-0.2-0.2-0.6-0.3-0.8-0.5c-0.1,0-0.3-0.1-0.5-0.1h-0.5H35c-0.1,0-0.2,0-0.3,0.1c-0.6,0.1-1.2,0.6-1.6,1.3c-0.6,0.7-1,1.6-1.3,3.1 c0,0.1,0,0.2-0.1,0.3v0.3c0,0.2-0.1,0.5-0.1,0.7V20c0,0.7,0.1,1.3,0.5,1.8c0.3,0.5,0.8,0.7,1.6,0.7h0.2h0.2h0.3 c0.1,0,0.2-0.1,0.5-0.1c0.3-0.1,0.7-0.3,1.1-0.7c0.3-0.3,0.5-0.7,0.6-1.2h4.1v0.1v0.1c0,0.2-0.1,0.6-0.2,1c-0.1,0.3-0.5,0.8-0.8,1.3 c-0.6,0.6-1.3,1.2-2.4,1.6c-1.1,0.5-2.4,0.7-4,0.7h-0.3h-0.2c-2.2,0-3.7-0.5-4.5-1.3c-0.7-0.8-1.2-1.8-1.3-2.8v-0.5 C27,20.1,27,20,27,19.8 M44.3,11.2h5.6l2.5,9.6l2.4-9.6h3.8l-3.1,13.4h-5.5l-2.7-10.2l-2.1,10.2h-3.7L44.3,11.2z M60.7,11.2h6.6h0.5 h0.5c1.1,0.1,2,0.3,2.8,0.7c0.9,0.5,1.4,1.3,1.4,2.5c0,2-0.7,3.4-2,4.2c-1.3,0.8-2.8,1.3-4.7,1.3h-2.9l-1.1,4.7h-4L60.7,11.2z M65.6,17.3c0.6,0,1.1-0.1,1.5-0.5c0.5-0.3,0.7-0.7,0.8-1.2v-0.2v-0.2c0-0.3-0.1-0.6-0.5-0.8c-0.2-0.2-0.7-0.3-1.4-0.3h-2l-0.8,3.4 h2.4L65.6,17.3L65.6,17.3z M72.5,21.1c0-0.2,0-0.6,0.1-0.8c0-0.2,0.1-0.6,0.1-0.8c0.2-1.1,0.8-2.1,1.6-3.1c0.8-1,2.1-1.4,3.9-1.5 c0.5,0,0.9,0.1,1.4,0.3c0.3,0.2,0.7,0.6,0.9,0.8c0,0.1,0.1,0.1,0.1,0.2l0.1,0.1l0.3-1.2h3.8L82,28.2h-3.8l1.1-4.9 c-0.2,0.3-0.5,0.6-0.7,0.7c-0.2,0.2-0.5,0.3-0.7,0.5c-0.3,0.1-0.6,0.2-0.9,0.3c-0.3,0.1-0.7,0.1-1.1,0.1c-1.2,0-2-0.2-2.5-0.8 c-0.5-0.5-0.7-1.1-0.8-1.6c0-0.2-0.1-0.5-0.1-0.7V21.1z M76.5,20.1c0,0.1,0,0.2-0.1,0.3v0.2v0.2v0.2c0,0.3,0.1,0.7,0.2,1.1 c0.1,0.3,0.5,0.5,1,0.5c0.6,0,1.1-0.1,1.4-0.5c0.3-0.3,0.7-1.1,1.1-2.1c0.1-0.1,0.1-0.3,0.1-0.6v-0.7c0-0.5-0.1-0.8-0.3-1.2 c-0.2-0.3-0.6-0.6-1.2-0.6c-0.5,0-0.9,0.2-1.3,0.6C77,18,76.7,18.5,76.6,19c-0.1,0.2-0.1,0.5-0.2,0.7C76.6,19.8,76.5,19.9,76.5,20.1 "></path> </svg>