<svg version="1.1" id="enem" xmlns="http://www.w3.org/2000/svg" xmlns:xlink="http://www.w3.org/1999/xlink" x="0px" y="0px" viewBox="0 0 70 42" enable-background="new 0 0 70 42" xml:space="preserve"> <path fill="#636363" d="M41.4,22.6c-0.2-0.3-0.4-0.5-0.7-0.6c-0.3-0.1-0.6-0.1-1,0.1c-0.6,0.3-0.9,0.8-0.6,1.6L41.4,22.6z M42.5,24.1l1.6-0.2c-0.2,1.1-0.8,2-2.1,2.5c-1,0.4-1.9,0.5-2.7,0.3c-0.8-0.3-1.4-0.8-1.8-1.6c-0.4-0.8-0.4-1.6-0.2-2.5 c0.3-0.8,0.9-1.4,1.8-1.8c0.6-0.3,1.3-0.4,1.9-0.3c0.6,0.1,1.1,0.3,1.5,0.7c0.4,0.4,0.7,0.9,1,1.4l-4.1,1.9c0.3,0.5,0.6,0.7,1,0.8 c0.4,0.1,0.7,0,1.1-0.1C42,25.1,42.3,24.7,42.5,24.1"></path> <path fill="#636363" d="M43.6,22.1v-1.4h2.9v0.6c0.6-0.4,1.2-0.6,1.8-0.6c1.2,0,1.9,0.8,1.9,2.3v2.3h0.9v1.4h-2.9v-3.6 c0-0.3,0-0.5-0.1-0.7c-0.1-0.1-0.3-0.1-0.5-0.1c-0.4,0-0.7,0.1-1.1,0.4v2.6h0.9v1.4h-3.8v-1.4h1v-3.1H43.6z"></path> <path fill="#636363" d="M55.4,23.1c0-0.3-0.2-0.6-0.4-0.8c-0.2-0.2-0.5-0.3-0.9-0.3c-0.7,0-1.1,0.4-1.3,1.2h2.6V23.1z M55.7,24.9 l1.5,0.5c-0.6,1-1.6,1.4-3,1.4c-1.1,0-1.9-0.3-2.5-0.8c-0.6-0.5-0.9-1.3-0.9-2.2c0-0.9,0.3-1.7,0.9-2.3c0.6-0.6,1.4-0.9,2.4-0.9 c0.7,0,1.3,0.2,1.8,0.5c0.5,0.3,0.9,0.8,1.1,1.3c0.2,0.5,0.3,1.1,0.3,1.7h-4.6c0,0.5,0.2,0.9,0.5,1.1c0.3,0.2,0.7,0.3,1,0.3 C54.8,25.6,55.3,25.3,55.7,24.9"></path> <path fill="#636363" d="M57.5,22.1v-1.4h3v0.5c0.7-0.4,1.3-0.6,2-0.6c0.8,0,1.4,0.3,1.8,0.8c0.8-0.5,1.6-0.8,2.5-0.8 c0.5,0,0.9,0.1,1.2,0.3c0.3,0.2,0.5,0.4,0.7,0.7c0.1,0.3,0.2,0.8,0.2,1.4v2.3h1v1.4h-3v-3.5c0-0.6-0.3-0.9-0.8-0.9 c-0.4,0-0.9,0.1-1.4,0.4v2.6h1v1.4h-3v-3.3c0-0.7-0.3-1-0.8-1c-0.4,0-0.9,0.1-1.4,0.4v2.6h1v1.4h-4v-1.4h1v-3.2H57.5z"></path> <path fill="#636363" d="M7.5,35.3c-6.8-7.6-6.2-19,1.6-25.7c7.8-6.7,19.8-6,26.7,1.6c2.4,2.6,3.9,5.7,4.5,8.9 c-0.5-3.8-2.1-7.4-4.9-10.4C28,1.6,15.3,0.8,6.9,8c-8.3,7-9.1,19.4-1.8,27.4c5.9,6.4,15.1,8.1,22.9,5.1 C20.9,42.9,12.8,41.1,7.5,35.3"></path> <path fill="#636363" d="M37.8,8.3c-2.3-3.9-5.8-6.7-9.7-8.2v1.9c4,1.5,7.6,4.2,9.8,8.1c1.9,3.1,2.7,6.5,2.6,9.7 C40.8,15.8,39.9,11.9,37.8,8.3"></path> <path fill="#636363" d="M28.6,8.3c-3.9-1.2-7.8-1.1-11.2,0.1c0.4,0.4,0.8,0.8,1.2,1.2c3.4-1.2,7.2-1.4,11-0.2c3,1,5.6,2.7,7.6,4.8 C35.1,11.4,32.1,9.4,28.6,8.3"></path> <path fill="#636363" d="M16.7,36.3c-1.2-3.2-0.8-11.4,6.4-13.9c4.7-1.7-1-7.1-0.7-11C26,21,38.9,22.9,39.8,22 c-1.7,2.1-9.5-0.5-9.8,2.3c-0.1,0.9,2.4,1.6,2.6,6.2C30.9,28.6,21.9,17.8,16.7,36.3"></path> <path fill="#636363" d="M35.2,21.6c-1.8,0.6-4.2,1-6.3,0.1c-3.6-1.3-6-7.6-6.7-10.4c-0.3,4,5.3,9.5,0.7,11 c-7.1,2.5-7.6,10.8-6.4,13.9c5.3-18.5,14.2-7.8,16-6c-0.2-4.5-2.8-5.2-2.6-6.2c0.4-2.8,8.1-0.2,9.8-2.3 C39.5,22.3,37.6,22.3,35.2,21.6"></path> <path fill="#636363" d="M22.3,11.4c-0.3,4,5.3,9.5,0.7,11c-7.1,2.5-7.6,10.8-6.4,13.9c0.1-0.3,0.2-0.5,0.2-0.8 c0.3-10,5.3-11.1,9.1-11.9c1.3-0.2,2.2-1.1,2.9-2C25.4,20.4,23,14.2,22.3,11.4"></path> <path fill="#636363" d="M35.1,15.9l-1.2,0.3v-1.1l-0.3,0.6l-1.5-1.3c0,0,0.4,0.8,0.3,0.8c-0.1,0-2.7-0.8-2.7-0.8l1,0.8l-2,0.3l1,0.6 l-1.6,0.8l1.1,0.2l-0.9,0.5h0.9c0,0.8,0.5,1.6,1.3,1.9h0.1l1.2,0.6c0.1,0.1,0.3,0,0.3-0.1c0,0,0.2-0.3,0.4-0.7H33l0.1-1.1 c0.1-0.2,0.2-0.4,0.2-0.4c0-0.2,0.1-0.3,0.1-0.5L35.1,15.9z"></path> </svg>