<svg version="1.1" id="fapesc" xmlns="http://www.w3.org/2000/svg" xmlns:xlink="http://www.w3.org/1999/xlink" x="0px" y="0px" viewBox="0 0 75.7 42" enable-background="new 0 0 75.7 42" xml:space="preserve"> <path fill="#636363" d="M2.9,35.9h6.2v-2.5H2.9v-3.1h7v-2.5H0v13.8h3L2.9,35.9z M13.3,38.8l-0.9,2.8H9.3l5-13.8h3.4l5,13.8h-3.2 l-0.8-2.8H13.3z M16,30.9l-1.8,5.4h3.6L16,30.9z M27.5,36.6h3.4c0.9,0,1.6-0.1,2.2-0.4c0.6-0.3,1-0.7,1.3-1.2 c0.3-0.5,0.6-0.9,0.7-1.5c0.1-0.6,0.1-0.9,0.1-1.3c0-1.3-0.4-2.5-1.2-3.2c-0.8-0.8-1.9-1.2-3.2-1.2h-6.5v13.8h3v-4.8L27.5,36.6 L27.5,36.6z M27.5,34.2v-4.1h2.3c0.9,0,1.6,0.1,2,0.4c0.4,0.3,0.6,0.8,0.6,1.5v0.7c0,0.3-0.1,0.4-0.3,0.7c-0.2,0.3-0.4,0.4-0.7,0.6 c-0.3,0.1-0.7,0.3-1.2,0.3L27.5,34.2L27.5,34.2L27.5,34.2z M47.9,27.9H37.5v13.8h10.7v-2.4h-7.9v-3.5h6.9v-2.5h-6.9v-2.8h7.5v-2.6 H47.9z M50,37.3c0,0.6,0.1,0.9,0.3,1.5c0.1,0.6,0.4,0.9,0.9,1.5c0.4,0.4,1,0.8,1.9,1.2c0.8,0.3,1.8,0.4,3,0.4c0.4,0,0.9,0,1.6-0.1 c0.6-0.1,1.2-0.3,1.8-0.6c0.7-0.3,1-0.8,1.6-1.3c0.4-0.7,0.7-1.3,0.7-2.5c0-0.6-0.1-1-0.3-1.5c-0.1-0.4-0.4-0.8-0.8-1 c-0.4-0.3-0.7-0.6-1-0.7c-0.4-0.1-0.9-0.3-1.5-0.4l-3.4-0.8c-0.1,0-0.4-0.1-0.6-0.1s-0.3-0.1-0.4-0.3c-0.1-0.2-0.3-0.3-0.4-0.4 s-0.1-0.4-0.1-0.7c0-0.3,0.1-0.6,0.3-0.8c0.1-0.3,0.3-0.4,0.6-0.6c0.3-0.1,0.6-0.3,0.8-0.3s0.6-0.1,0.9-0.1c0.6,0,1,0.1,1.5,0.3 s0.7,0.3,0.8,0.6c0.1,0.3,0.3,0.4,0.4,0.7c0.1,0.3,0.1,0.4,0.1,0.7h2.8c0-0.6-0.1-0.9-0.3-1.5c-0.1-0.6-0.6-0.9-0.9-1.5 c-0.4-0.4-0.9-0.8-1.8-1c-0.7-0.3-1.6-0.4-2.6-0.4c-1,0-2,0.1-2.7,0.4c-0.7,0.3-1.2,0.7-1.6,1c-0.4,0.4-0.7,0.9-0.8,1.3 s-0.3,0.9-0.3,1.3c0,0.7,0.1,1.3,0.4,1.8c0.3,0.6,0.6,0.8,0.9,1s0.8,0.6,1.3,0.7c0.4,0.1,1,0.3,1.9,0.6l1.5,0.4 c0.9,0.3,1.5,0.4,1.9,0.7c0.4,0.3,0.6,0.6,0.6,1c0,0.4-0.1,0.7-0.3,0.8c-0.1,0.3-0.4,0.4-0.7,0.6s-0.6,0.3-0.9,0.3 c-0.4,0-0.7,0.1-1,0.1c-0.6,0-1-0.1-1.5-0.3c-0.4-0.2-0.7-0.3-0.9-0.6c-0.3-0.3-0.4-0.4-0.4-0.7C53,37.7,53,37.5,53,37.3H50z M75.6,32.3c0-0.6-0.1-1-0.4-1.6c-0.3-0.6-0.7-1-1-1.6c-0.6-0.6-1-0.9-1.9-1.2c-0.8-0.3-1.6-0.4-2.7-0.4c-0.9,0-1.8,0.1-2.6,0.4 s-1.5,0.8-2.1,1.3c-0.6,0.7-1,1.3-1.3,2.3c-0.3,0.9-0.6,2-0.6,3.1c0,2.3,0.6,4.1,1.8,5.4c1.2,1.2,2.7,1.9,4.7,1.9 c1.8,0,3.1-0.4,4.1-1.3c1-0.9,1.8-2.2,2.1-3.6h-3c-0.1,0.8-0.6,1.5-1,1.9s-1.2,0.7-2.1,0.7c-0.6,0-1-0.1-1.6-0.4 c-0.4-0.3-0.8-0.6-1-1c-0.3-0.4-0.6-0.9-0.7-1.5c-0.2-0.6-0.3-1.2-0.3-1.8c0-0.9,0.1-1.8,0.3-2.3c0.3-0.7,0.6-1,0.8-1.5 c0.4-0.4,0.7-0.7,1-0.8c0.4-0.1,0.8-0.3,1.2-0.3c0.6,0,1,0.1,1.5,0.3c0.4,0.1,0.7,0.4,0.9,0.6c0.3,0.3,0.4,0.6,0.6,0.7 c0.1,0.3,0.3,0.6,0.3,0.8H75.6z"></path> <path fill="#636363" d="M24.6,0h23.7v24.2H24.6v-2.1c4.4-0.9,8.4-2.3,12.6-4.8c7.9-5,12.6-11.7,10.3-15.1C45.1-1,37.3,0.1,29,5.3 c-1.8,1-3,2.3-4.4,3.5V0z"></path> <path fill="#636363" d="M24.6,10c1.2-1,3.5-3,5.1-4.1c7.5-4.4,14.5-6.2,17-3.2c2,3.1-2.5,9.5-9.7,14.2c-3.8,2.5-9.2,4.2-12.4,4.7 c2.3-0.8,5.6-3.6,6.5-5.4c2.3-3.8,0.9-6.2-3.1-5.6c-0.8,0.1-2.6,1-3.5,1.5L24.6,10L24.6,10L24.6,10L24.6,10z"></path> </svg>