<svg version="1.1" id="prouni" xmlns="http://www.w3.org/2000/svg" xmlns:xlink="http://www.w3.org/1999/xlink" x="0px" y="0px" viewBox="0 0 77.6 41.9" enable-background="new 0 0 77.6 41.9" xml:space="preserve"> <polygon fill="#636363" points="11.3,39.3 12.2,33.7 15.7,33.7 15.7,34.6 13.3,34.6 13.1,36 15.1,36 15,36.8 13.1,36.8 12.7,38.4 15.7,38.4 15.7,39.3 "></polygon> <path fill="#636363" d="M26.9,40.4v-7.5h2.5c0.9,0,1.5,0.2,2,0.6c0.5,0.3,0.6,0.9,0.6,1.7c0,0.8-0.2,1.4-0.6,1.7 c-0.5,0.5-1.3,0.6-2.1,0.6h-0.6v2.9H27L26.9,40.4L26.9,40.4L26.9,40.4z M29.3,36c0.3,0,0.6,0,0.7-0.2c0.2-0.2,0.2-0.3,0.2-0.6 c0-0.3-0.2-0.5-0.3-0.6c-0.2-0.2-0.5-0.2-0.6-0.2h-0.8v1.7L29.3,36L29.3,36L29.3,36z"></path> <path fill="#636363" d="M34.6,40.4v-7.5H37c0.9,0,1.5,0.2,2,0.5c0.5,0.3,0.6,0.9,0.6,1.7c0,0.5-0.2,0.7-0.3,1.1 c-0.2,0.3-0.5,0.6-0.9,0.7c0.2,0,0.3,0.2,0.5,0.3c0.2,0.2,0.3,0.3,0.3,0.6l1.1,2.6h-1.8l-0.7-2.1c-0.2-0.3-0.3-0.6-0.5-0.7 c-0.2-0.1-0.5-0.2-0.7-0.2h-0.2h-0.2v3.1L34.6,40.4z M37,36c0.3,0,0.5,0,0.6-0.2c0.2-0.2,0.2-0.3,0.2-0.6c0-0.3-0.2-0.5-0.3-0.6 c-0.2-0.2-0.3-0.2-0.6-0.2h-0.7v1.7L37,36L37,36L37,36z"></path> <path fill="#636363" d="M41.6,36.7c0-0.6,0.2-1.1,0.3-1.5c0.2-0.5,0.5-0.9,0.7-1.3c0.3-0.3,0.7-0.6,1.1-0.7c0.5-0.2,0.9-0.3,1.4-0.3 c0.5,0,1.1,0.2,1.4,0.3c0.5,0.2,0.7,0.5,1.1,0.7c0.3,0.3,0.6,0.7,0.7,1.3c0.2,0.5,0.3,0.9,0.3,1.5c0,0.6-0.2,1.1-0.3,1.5 c-0.1,0.5-0.5,0.9-0.7,1.3c-0.3,0.3-0.7,0.6-1.3,0.7c-0.5,0.2-0.9,0.3-1.4,0.3c-0.4,0-0.9-0.2-1.4-0.3c-0.5-0.2-0.7-0.5-1.1-0.7 c-0.3-0.3-0.6-0.7-0.7-1.3C41.8,37.7,41.6,37.2,41.6,36.7 M43.3,36.7c0,0.6,0.2,1.3,0.5,1.7c0.3,0.5,0.7,0.6,1.4,0.6 c0.6,0,1.1-0.2,1.4-0.6c0.3-0.5,0.5-0.9,0.5-1.7c0-0.6-0.2-1.3-0.5-1.7c-0.3-0.5-0.7-0.6-1.4-0.6c-0.6,0-1.1,0.2-1.4,0.6 C43.6,35.5,43.3,36,43.3,36.7"></path> <path fill="#636363" d="M76.6,3.3c0,0-0.3,0.2-0.9,0.6c-0.6,0.2-1.4,0-1.3-0.6c0.3-1.1-0.6-1.1-0.6-1.1l-2,0.7 c0,0-15.8,6.1-32.6,23.7c-0.3,0.2-0.6,0.2-0.7,0c-0.1-0.2-0.5-0.5-0.6-0.6C21.5,8.9,6.2,3.1,6.2,3.1l-2-0.9c0,0-0.9-0.2-0.6,1.1 c0.2,0.6-0.5,0.6-1.3,0.6C1.9,3.4,1.6,3.2,1.6,3.2C0.1,3.4,0.7,5,0.7,5c12.4,7.4,33.7,20.6,36.6,22.2c0.9,0.5,1.4,0.7,1.7,0.9h0.3 c0.3-0.2,0.7-0.3,1.7-0.9C43.9,25.6,65.1,12.3,77.6,5C77.5,5.1,78,3.5,76.6,3.3 M4.9,5.5L4.9,5.5C3.4,4.4,4.2,3.8,4.2,3.8 c16.2,5.3,31.3,19.1,34.4,23.9C33.9,23.7,13.1,10.5,4.9,5.5 M73.3,5.5L73.3,5.5c-8.1,5.2-28.9,18.4-33.7,22.1 C42.7,23,57.8,9.1,74,3.7C74,3.7,74.9,4.4,73.3,5.5"></path> <path fill="#636363" d="M62.9,2c0,0-0.2,0.2-0.6,0.5c-0.5,0.2-0.9,0.2-0.9-0.3c0.2-0.7-0.5-0.7-0.5-0.7l-1.3,0.7 c0,0-9.8,5.1-19.7,18.2l-0.2,0.2c-0.7,1.1-1.5,0-1.5,0C28.2,7.4,18.4,2.2,18.4,2.2l-1.2-0.7c0,0-0.6-0.2-0.5,0.7 c0,0.5-0.5,0.5-0.9,0.3C15.5,2.2,15.2,2,15.2,2c-0.9,0-0.6,1.3-0.6,1.3C22.5,9.4,36,20.4,37.8,21.6c0.6,0.5,0.9,0.6,1.1,0.7 c0.2-0.2,0.5-0.3,0.9-0.6c1.8-1.4,15.3-12.2,23.3-18.4C63.5,3.1,63.8,2,62.9,2 M17.7,3.7L17.7,3.7c-1.1-0.7-0.5-1.4-0.5-1.4 c10.5,4.9,20,15.9,21.9,19.4C35.9,18.8,22.8,7.9,17.7,3.7 M60.7,3.7L60.7,3.7C55.5,8,42.3,18.8,39.3,21.9 c1.8-3.5,11.2-14.5,21.9-19.4C61.2,2.3,61.8,2.8,60.7,3.7"></path> <path fill="#636363" d="M54.7,0.5c0,0-0.2,0.2-0.3,0.5c-0.3,0.2-0.6,0.2-0.6-0.3C53.8,0,53.5,0,53.5,0l-0.7,0.6 c0,0-6.4,4.4-12.5,15.1c-0.5,1.1-1.1,0.6-1.4,0.3c0-0.2-0.2-0.2-0.2-0.3C32.5,5.1,26.2,0.6,26.2,0.6L25.4,0c0,0-0.5-0.2-0.3,0.6 c0,0.3-0.3,0.3-0.6,0.3c-0.3-0.3-0.3-0.5-0.3-0.5c-0.6,0-0.5,0.9-0.5,0.9c5.1,5.1,13.8,14.3,14.9,15.3c0.3,0.3,0.5,0.5,0.6,0.5 l0.2,0.2c0.3,0.3,0.6,0,0.6,0c0.2-0.2,0.3-0.3,0.6-0.6c1.3-1.1,9.9-10.3,15-15.3C55.2,1.4,55.4,0.3,54.7,0.5 M25.1,1.8L25.1,1.8 c-0.6-0.7-0.2-1.1-0.2-1.1c6.9,4.3,12.9,13.3,14,16.1C36.9,14.4,28.5,5.3,25.1,1.8 M53.2,1.8L53.2,1.8C49.9,5.3,41.4,14.3,39.4,17 c1.3-2.9,7-11.9,14.1-16.2C53.6,0.8,54,1.3,53.2,1.8"></path> <path fill="#636363" d="M0,39.3l0.9-5.7H2h1.3c0.3,0,0.5,0.2,0.6,0.2c0.3,0.2,0.5,0.3,0.6,0.6c0.2,0.3,0.3,0.6,0.3,0.9 c0,0.6-0.2,1.1-0.6,1.4c-0.5,0.3-1.1,0.5-1.8,0.5H1.7l-0.3,2.1L0,39.3L0,39.3z M1.9,36.2h0.2h0.2c0.5,0,0.7,0,0.9-0.2 c0.2-0.2,0.3-0.3,0.3-0.6c0-0.3-0.2-0.5-0.3-0.6c-0.2-0.2-0.5-0.2-0.9-0.2H2.1H1.9V36.2z"></path> <path fill="#636363" d="M5.2,39.3l0.9-5.7h0.3h0.3c0.7,0,1.3,0,1.7,0.2c0.5,0,0.7,0.2,1.1,0.3c0.5,0.3,0.9,0.6,1.1,1.1 c0.3,0.5,0.5,0.9,0.5,1.5c0,0.3,0,0.7-0.2,1.1c-0.2,0.3-0.3,0.6-0.5,0.9c-0.3,0.3-0.6,0.5-1.1,0.6c-0.5,0.2-0.9,0.2-1.7,0.2H5.1 L5.2,39.3L5.2,39.3L5.2,39.3z M6.5,38.4h1.1c0.6,0,1.1-0.2,1.5-0.5c0.3-0.3,0.5-0.7,0.5-1.4c0-0.6-0.2-1.1-0.6-1.4 c-0.5-0.3-0.9-0.5-1.7-0.5H7.1H6.9L6.5,38.4z"></path> <path fill="#636363" d="M56.9,32.9v4.3c0,1.1-0.3,1.8-0.7,2.5c-0.6,0.6-1.4,0.9-2.3,0.9c-0.9,0-1.7-0.3-2.3-0.9 c-0.6-0.6-0.7-1.4-0.7-2.5v-4.3h1.7V37c0,0.6,0.2,1.1,0.3,1.4c0.3,0.3,0.6,0.5,1.1,0.5c0.4,0,0.7-0.2,1.1-0.5 c0.3-0.3,0.3-0.7,0.3-1.4v-4.1H56.9z"></path> <polygon fill="#636363" points="60.4,35.7 60.4,40.4 58.9,40.4 58.9,32.9 60.2,32.9 63.8,37.3 63.8,32.9 65.5,32.9 65.5,40.4 64.3,40.4 "></polygon> <rect x="68.1" y="32.9" fill="#636363" width="1.7" height="7.5"></rect> <rect x="21.2" y="31.4" fill="#636363" width="0.6" height="10.5"></rect> </svg>